# shoe_from_mannequin.obj generated for retail scene
v 0.1494 0.1234 -0.0773
v 0.0890 0.1219 -0.0721
v 0.1086 0.1226 -0.0000
v 0.1699 0.3129 0.0006
v 0.1682 0.3143 -0.0951
v 0.0714 0.3157 -0.0890
v 0.0829 0.3139 0.0170
v 0.1224 0.1266 -0.0850
v 0.1394 0.1257 0.0016
v 0.1437 0.3124 0.0257
v 0.1335 0.3137 -0.1092
v 0.1684 0.1251 -0.0532
v 0.0716 0.1252 -0.0326
v 0.0459 0.3142 -0.0369
v 0.1990 0.3131 -0.0478
v 0.1234 0.0063 0.1789
v 0.1224 0.0390 0.1726
v 0.0817 0.0071 -0.0695
v 0.0806 0.0893 -0.0722
v 0.2087 0.0063 0.1681
v 0.2078 0.0390 0.1618
v 0.1605 0.0071 -0.0787
v 0.1593 0.0894 -0.0822
v 0.0875 0.0043 -0.0036
v 0.1024 0.0043 0.0739
v 0.1026 0.0516 0.0740
v 0.1033 0.0887 0.0071
v 0.2069 0.0043 0.0631
v 0.1920 0.0043 -0.0147
v 0.2022 0.0516 0.0631
v 0.1177 0.0071 -0.0737
v 0.1165 0.0893 -0.0811
v 0.1578 0.0047 0.1746
v 0.1566 0.0414 0.1683
v 0.1333 0.0888 0.0033
v 0.1444 0.0516 0.0696
v 0.1295 0.0043 -0.0081
v 0.1444 0.0043 0.0696
v 0.0798 0.0887 -0.0414
v 0.1844 0.0043 -0.0537
v 0.0799 0.0043 -0.0420
v 0.1653 0.0887 -0.0542
v 0.1218 0.0043 -0.0467
v 0.1232 0.0188 0.1776
v 0.0798 0.0330 -0.0783
v 0.1586 0.0331 -0.0875
v 0.2085 0.0188 0.1668
v 0.1918 0.0207 -0.0158
v 0.2069 0.0198 0.0631
v 0.1024 0.0198 0.0739
v 0.0874 0.0207 -0.0046
v 0.1575 0.0180 0.1732
v 0.1158 0.0330 -0.0869
v 0.1844 0.0278 -0.0537
v 0.0799 0.0277 -0.0419
v 0.1576 0.1231 -0.0214
v 0.1737 0.0888 -0.0018
v -0.1494 0.1234 -0.0773
v -0.0890 0.1219 -0.0721
v -0.1086 0.1226 -0.0000
v -0.1699 0.3129 0.0006
v -0.1682 0.3143 -0.0951
v -0.0714 0.3157 -0.0890
v -0.0829 0.3139 0.0170
v -0.1224 0.1266 -0.0850
v -0.1394 0.1257 0.0016
v -0.1437 0.3124 0.0257
v -0.1335 0.3137 -0.1092
v -0.1684 0.1251 -0.0532
v -0.0716 0.1252 -0.0326
v -0.0459 0.3142 -0.0369
v -0.1990 0.3131 -0.0478
v -0.1234 0.0063 0.1789
v -0.1224 0.0390 0.1726
v -0.0817 0.0071 -0.0695
v -0.0806 0.0893 -0.0722
v -0.2087 0.0063 0.1681
v -0.2078 0.0390 0.1618
v -0.1605 0.0071 -0.0787
v -0.1593 0.0894 -0.0822
v -0.0875 0.0043 -0.0036
v -0.1024 0.0043 0.0739
v -0.1026 0.0516 0.0740
v -0.1033 0.0887 0.0071
v -0.2069 0.0043 0.0631
v -0.1920 0.0043 -0.0147
v -0.2022 0.0516 0.0631
v -0.1177 0.0071 -0.0737
v -0.1165 0.0893 -0.0811
v -0.1578 0.0047 0.1746
v -0.1566 0.0414 0.1683
v -0.1333 0.0888 0.0033
v -0.1444 0.0516 0.0696
v -0.1295 0.0043 -0.0081
v -0.1444 0.0043 0.0696
v -0.0798 0.0887 -0.0414
v -0.1844 0.0043 -0.0537
v -0.0799 0.0043 -0.0420
v -0.1653 0.0887 -0.0542
v -0.1218 0.0043 -0.0467
v -0.1232 0.0188 0.1776
v -0.0798 0.0330 -0.0783
v -0.1586 0.0331 -0.0875
v -0.2085 0.0188 0.1668
v -0.1918 0.0207 -0.0158
v -0.2069 0.0198 0.0631
v -0.1024 0.0198 0.0739
v -0.0874 0.0207 -0.0046
v -0.1575 0.0180 0.1732
v -0.1158 0.0330 -0.0869
v -0.1844 0.0278 -0.0537
v -0.0799 0.0277 -0.0419
v -0.1576 0.1231 -0.0214
v -0.1737 0.0888 -0.0018
vn 0.9865 -0.1488 -0.0683
vn 0.8148 -0.1246 0.5662
vn 0.8536 0.0793 0.5148
vn 0.9893 0.0036 -0.1460
vn 0.0108 -0.1253 -0.9920
vn 0.6008 -0.1334 -0.7881
vn 0.5628 -0.0273 -0.8261
vn -0.0445 -0.0601 -0.9972
vn -0.9824 -0.1473 0.1148
vn -0.6659 -0.1260 -0.7353
vn -0.6769 -0.0476 -0.7345
vn -0.9777 -0.0856 0.1916
vn 0.3393 -0.1276 0.9319
vn -0.4823 -0.1278 0.8666
vn -0.4338 -0.0389 0.9002
vn 0.3100 0.0457 0.9496
vn -0.9915 0.0128 0.1295
vn -0.9873 0.0224 0.1570
vn -0.7781 0.0478 -0.6263
vn -0.7378 -0.1090 -0.6662
vn -0.1233 -0.1482 -0.9812
vn -0.1275 0.0585 -0.9901
vn 0.5628 0.1200 -0.8178
vn 0.4300 -0.0666 -0.9004
vn 0.9895 0.0889 -0.1138
vn 0.7290 0.6820 0.0593
vn 0.6205 0.6200 0.4802
vn 0.7413 0.1454 0.6553
vn 0.1242 0.1642 0.9786
vn 0.0785 0.7549 0.6511
vn -0.5084 0.5866 0.6304
vn -0.5687 0.1185 0.8139
vn -0.0011 -1.0000 0.0062
vn 0.7233 -0.6868 -0.0710
vn 0.6173 -0.5436 0.5687
vn 0.0907 -0.6746 0.7326
vn 0.0327 0.9524 0.3031
vn -0.7091 0.6373 0.3015
vn 0.1447 0.6013 0.7858
vn -0.6448 0.3438 0.6826
vn -0.0056 -0.9987 -0.0510
vn 0.6597 -0.6708 -0.3389
vn 0.6944 -0.7068 -0.1344
vn 0.0001 -1.0000 0.0001
vn 0.9243 0.0962 -0.3694
vn 0.9470 0.1914 -0.2581
vn 0.7839 0.5505 0.2869
vn 0.9738 0.1278 -0.1878
vn -0.9830 0.0381 0.1795
vn -0.9743 0.0526 0.2189
vn -0.6934 -0.7077 0.1355
vn -0.6962 -0.7041 0.1400
vn -0.7168 -0.6967 0.0274
vn -0.4675 -0.5381 0.7013
vn -0.6044 -0.6558 -0.4523
vn -0.0701 -0.8053 -0.5886
vn 0.3074 -0.6822 -0.6634
vn -0.9865 -0.1488 -0.0683
vn -0.9893 0.0036 -0.1460
vn -0.8536 0.0793 0.5148
vn -0.8148 -0.1246 0.5662
vn -0.0108 -0.1253 -0.9920
vn 0.0445 -0.0601 -0.9972
vn -0.5628 -0.0273 -0.8261
vn -0.6008 -0.1334 -0.7881
vn 0.9824 -0.1473 0.1148
vn 0.9777 -0.0856 0.1916
vn 0.6769 -0.0476 -0.7345
vn 0.6659 -0.1260 -0.7353
vn -0.3393 -0.1276 0.9319
vn -0.3100 0.0457 0.9496
vn 0.4338 -0.0388 0.9002
vn 0.4823 -0.1278 0.8666
vn 0.9915 0.0128 0.1295
vn 0.7378 -0.1090 -0.6662
vn 0.7781 0.0478 -0.6263
vn 0.9873 0.0224 0.1570
vn 0.1233 -0.1482 -0.9812
vn -0.4300 -0.0666 -0.9004
vn -0.5628 0.1200 -0.8178
vn 0.1275 0.0585 -0.9901
vn -0.9895 0.0889 -0.1138
vn -0.7413 0.1454 0.6553
vn -0.6205 0.6200 0.4802
vn -0.7290 0.6820 0.0593
vn -0.1242 0.1642 0.9786
vn 0.5687 0.1185 0.8139
vn 0.5084 0.5866 0.6304
vn -0.0785 0.7549 0.6511
vn 0.0011 -1.0000 0.0062
vn -0.0907 -0.6746 0.7326
vn -0.6173 -0.5436 0.5687
vn -0.7233 -0.6868 -0.0710
vn -0.0327 0.9524 0.3031
vn 0.7091 0.6373 0.3015
vn -0.1447 0.6013 0.7858
vn 0.6448 0.3438 0.6826
vn 0.0056 -0.9987 -0.0510
vn -0.0001 -1.0000 0.0001
vn -0.6944 -0.7068 -0.1344
vn -0.6597 -0.6708 -0.3389
vn -0.9243 0.0962 -0.3694
vn -0.9738 0.1278 -0.1878
vn -0.7839 0.5505 0.2869
vn -0.9470 0.1914 -0.2581
vn 0.9830 0.0381 0.1795
vn 0.9743 0.0526 0.2189
vn 0.6934 -0.7077 0.1354
vn 0.6962 -0.7041 0.1400
vn 0.7168 -0.6967 0.0274
vn 0.4675 -0.5381 0.7013
vn 0.6044 -0.6558 -0.4523
vn 0.0701 -0.8053 -0.5886
vn -0.3074 -0.6822 -0.6634
o Boots_Cube.004
f 15//1 4//2 56//3
f 15//1 56//3 12//4
f 11//5 5//6 1//7
f 11//5 1//7 8//8
f 14//9 6//10 2//11
f 14//9 2//11 13//12
f 10//13 7//14 3//15
f 10//13 3//15 9//16
f 4//2 10//13 9//16
f 4//2 9//16 56//3
f 6//10 11//5 8//8
f 6//10 8//8 2//11
f 7//14 14//9 13//12
f 7//14 13//12 3//15
f 5//6 15//1 12//4
f 5//6 12//4 1//7
f 55//17 39//18 19//19
f 55//17 19//19 45//20
f 53//21 32//22 23//23
f 53//21 23//23 46//24
f 49//25 30//26 21//27
f 49//25 21//27 47//28
f 52//29 34//30 17//31
f 52//29 17//31 44//32
f 38//33 28//34 20//35
f 38//33 20//35 33//36
f 36//37 26//38 17//31
f 36//37 17//31 34//30
f 35//39 27//40 26//38
f 35//39 26//38 36//37
f 43//41 40//42 29//43
f 43//41 29//43 37//44
f 37//44 29//43 28//34
f 37//44 28//34 38//33
f 54//45 42//46 57//47
f 54//45 57//47 48//48
f 48//48 57//47 30//26
f 48//48 30//26 49//25
f 44//32 17//31 26//38
f 44//32 26//38 50//49
f 50//49 26//38 27//40
f 50//49 27//40 51//50
f 24//51 37//44 38//33
f 24//51 38//33 25//52
f 41//53 43//41 37//44
f 41//53 37//44 24//51
f 57//47 35//39 36//37
f 57//47 36//37 30//26
f 30//26 36//37 34//30
f 30//26 34//30 21//27
f 25//52 38//33 33//36
f 25//52 33//36 16//54
f 47//28 21//27 34//30
f 47//28 34//30 52//29
f 45//20 19//19 32//22
f 45//20 32//22 53//21
f 18//55 31//56 43//41
f 18//55 43//41 41//53
f 46//24 23//23 42//46
f 46//24 42//46 54//45
f 31//56 22//57 40//42
f 31//56 40//42 43//41
f 51//50 27//40 39//18
f 51//50 39//18 55//17
f 12//4 42//46 23//23
f 12//4 23//23 1//7
f 1//7 23//23 32//22
f 1//7 32//22 8//8
f 8//8 32//22 19//19
f 8//8 19//19 2//11
f 2//11 19//19 39//18
f 2//11 39//18 13//12
f 13//12 39//18 27//40
f 13//12 27//40 3//15
f 3//15 27//40 35//39
f 3//15 35//39 9//16
f 9//16 35//39 57//47
f 9//16 57//47 56//3
f 56//3 57//47 42//46
f 56//3 42//46 12//4
f 24//51 51//50 55//17
f 24//51 55//17 41//53
f 22//57 46//24 54//45
f 22//57 54//45 40//42
f 18//55 45//20 53//21
f 18//55 53//21 31//56
f 20//35 47//28 52//29
f 20//35 52//29 33//36
f 25//52 50//49 51//50
f 25//52 51//50 24//51
f 16//54 44//32 50//49
f 16//54 50//49 25//52
f 29//43 48//48 49//25
f 29//43 49//25 28//34
f 40//42 54//45 48//48
f 40//42 48//48 29//43
f 33//36 52//29 44//32
f 33//36 44//32 16//54
f 28//34 49//25 47//28
f 28//34 47//28 20//35
f 31//56 53//21 46//24
f 31//56 46//24 22//57
f 41//53 55//17 45//20
f 41//53 45//20 18//55
f 72//58 69//59 113//60
f 72//58 113//60 61//61
f 68//62 65//63 58//64
f 68//62 58//64 62//65
f 71//66 70//67 59//68
f 71//66 59//68 63//69
f 67//70 66//71 60//72
f 67//70 60//72 64//73
f 61//61 113//60 66//71
f 61//61 66//71 67//70
f 63//69 59//68 65//63
f 63//69 65//63 68//62
f 64//73 60//72 70//67
f 64//73 70//67 71//66
f 62//65 58//64 69//59
f 62//65 69//59 72//58
f 112//74 102//75 76//76
f 112//74 76//76 96//77
f 110//78 103//79 80//80
f 110//78 80//80 89//81
f 106//82 104//83 78//84
f 106//82 78//84 87//85
f 109//86 101//87 74//88
f 109//86 74//88 91//89
f 95//90 90//91 77//92
f 95//90 77//92 85//93
f 93//94 91//89 74//88
f 93//94 74//88 83//95
f 92//96 93//94 83//95
f 92//96 83//95 84//97
f 100//98 94//99 86//100
f 100//98 86//100 97//101
f 94//99 95//90 85//93
f 94//99 85//93 86//100
f 111//102 105//103 114//104
f 111//102 114//104 99//105
f 105//103 106//82 87//85
f 105//103 87//85 114//104
f 101//87 107//106 83//95
f 101//87 83//95 74//88
f 107//106 108//107 84//97
f 107//106 84//97 83//95
f 81//108 82//109 95//90
f 81//108 95//90 94//99
f 98//110 81//108 94//99
f 98//110 94//99 100//98
f 114//104 87//85 93//94
f 114//104 93//94 92//96
f 87//85 78//84 91//89
f 87//85 91//89 93//94
f 82//109 73//111 90//91
f 82//109 90//91 95//90
f 104//83 109//86 91//89
f 104//83 91//89 78//84
f 102//75 110//78 89//81
f 102//75 89//81 76//76
f 75//112 98//110 100//98
f 75//112 100//98 88//113
f 103//79 111//102 99//105
f 103//79 99//105 80//80
f 88//113 100//98 97//101
f 88//113 97//101 79//114
f 108//107 112//74 96//77
f 108//107 96//77 84//97
f 69//59 58//64 80//80
f 69//59 80//80 99//105
f 58//64 65//63 89//81
f 58//64 89//81 80//80
f 65//63 59//68 76//76
f 65//63 76//76 89//81
f 59//68 70//67 96//77
f 59//68 96//77 76//76
f 70//67 60//72 84//97
f 70//67 84//97 96//77
f 60//72 66//71 92//96
f 60//72 92//96 84//97
f 66//71 113//60 114//104
f 66//71 114//104 92//96
f 113//60 69//59 99//105
f 113//60 99//105 114//104
f 81//108 98//110 112//74
f 81//108 112//74 108//107
f 79//114 97//101 111//102
f 79//114 111//102 103//79
f 75//112 88//113 110//78
f 75//112 110//78 102//75
f 77//92 90//91 109//86
f 77//92 109//86 104//83
f 82//109 81//108 108//107
f 82//109 108//107 107//106
f 73//111 82//109 107//106
f 73//111 107//106 101//87
f 86//100 85//93 106//82
f 86//100 106//82 105//103
f 97//101 86//100 105//103
f 97//101 105//103 111//102
f 90//91 73//111 101//87
f 90//91 101//87 109//86
f 85//93 77//92 104//83
f 85//93 104//83 106//82
f 88//113 79//114 103//79
f 88//113 103//79 110//78
f 98//110 75//112 102//75
f 98//110 102//75 112//74
